<svg width="16" height="16" viewBox="0 0 16 16" fill="none" xmlns="http://www.w3.org/2000/svg">
<g id="search">
<path id="Stroke 472" d="M15.211 13.5194C15.6015 13.91 15.6015 14.5431 15.211 14.9336C14.8205 15.3242 14.1873 15.3242 13.7968 14.9336L9.84026 10.9771C9.44973 10.5866 9.44973 9.95344 9.84026 9.56291C10.2308 9.17239 10.8639 9.17239 11.2545 9.56291L15.211 13.5194Z" fill="#D00846"/>
<path id="Stroke 473" fill-rule="evenodd" clip-rule="evenodd" d="M12.6778 6.31352C12.6778 2.95196 9.95242 0.226562 6.59086 0.226562C3.22931 0.226562 0.503906 2.95196 0.503906 6.31352C0.503906 9.67508 3.22931 12.4005 6.59086 12.4005C9.95242 12.4005 12.6778 9.67508 12.6778 6.31352ZM2.50391 6.31352C2.50391 4.05653 4.33388 2.22656 6.59086 2.22656C8.84785 2.22656 10.6778 4.05653 10.6778 6.31352C10.6778 8.57051 8.84785 10.4005 6.59086 10.4005C4.33388 10.4005 2.50391 8.57051 2.50391 6.31352Z" fill="#D00846"/>
</g>
</svg>
